<svg xmlns="http://www.w3.org/2000/svg" version="1.1" xmlns:xlink="http://www.w3.org/1999/xlink" xmlns:svgjs="http://svgjs.dev/svgjs" width="100%" height="100%" viewBox="0 0 1000 600"><rect width="1000" height="600" x="0" y="0" fill="trasnparent"/><g><circle r="166.66666666666666" cx="312.4960276285807" cy="334.7183173855493" fill="transparent" transform="matrix(0.857165697356054,0,0,0.857165697356054,0,13.090913901749445)"/><path d="M363.121750584613 377.7501843151684L363.121750584613 377.7501843151684Q364.77135235236426 377.7501843151684 366.1080986124384 379.08693057524266L366.1080986124384 379.08693057524266L373.8726034847846 387.590912102098Q364.88511799151945 398.0289094945926 352.0296007669756 403.8593985012995Q339.17408354243184 409.7183289177951 321.0569055069575 409.7183289177951L321.0569055069575 409.7183289177951Q305.1865988447994 409.7183289177951 292.27419880067794 404.229136828554Q279.3902401663453 398.739944739313 270.26054762413605 388.8707755425946Q261.1592964917156 379.00160634587616 256.1251669590956 365.1790811885127Q251.1194788362644 351.3565560311492 251.1194788362644 334.746772714482L251.1194788362644 334.746772714482Q251.1194788362644 318.1654308076035 256.4949052863502 304.34290565024Q261.870331736436 290.5203804928766 271.59729388421033 280.5943284765806Q281.32425603198465 270.6682764602846 294.8908085012488 265.1790843710435Q308.4573609705129 259.7183336915913 324.8396130088697 259.7183336915913L324.8396130088697 259.7183336915913Q341.0227751787047 259.7183336915913 352.740636011696 264.7240218144225Q364.45849684468726 269.7297099372537 373.5881893868965 278.34745710326433L373.5881893868965 278.34745710326433L367.1319893648357 287.4487082356847Q366.4209541201154 288.472598988082 365.48238759708454 289.1551928230135Q364.57226248384245 289.8093452481562 362.8373364867249 289.8093452481562L362.8373364867249 289.8093452481562Q361.5005902266506 289.8093452481562 360.02163691763235 288.8423373153365Q358.5142421988252 287.8753293825169 356.4664606940306 286.42481748328737Q354.41867918923606 285.0027469938467 351.6598624397211 283.35314522609553Q348.90104569020616 281.7319848681331 345.11833818829393 280.2814729689036Q341.3356306863817 278.8594024794629 336.3015011537616 277.89239454664323Q331.2958130309304 276.89694520403475 324.7258473697144 276.89694520403475L324.7258473697144 276.89694520403475Q312.95110371714554 276.89694520403475 303.19570015958243 280.9640668038352Q293.4118551922305 285.0027469938467 286.32994415481585 292.48283776830476Q279.27647452719 299.9344871329739 275.32311856654496 310.6853400331455Q271.39820401568863 321.43619293331716 271.39820401568863 334.746772714482L271.39820401568863 334.746772714482Q271.39820401568863 348.48397364247904 275.32311856654496 359.23482654265064Q279.27647452719 369.98567944282223 286.07397146671656 377.4088873977026Q292.8999098160318 384.83209535258305 302.20025081697395 388.72856849365047Q311.5290332277049 392.5966002249292 322.27988612787647 392.5966002249292L322.27988612787647 392.5966002249292Q328.82141037930364 392.5966002249292 334.05462978044534 391.8286821606312Q339.28784918158703 391.06076409633323 343.72470910864206 389.43960373837086Q348.19001044548577 387.7900019706197 352.0296007669756 385.28715790920404Q355.8691910884655 382.7843138477884 359.76566422953294 379.28602044376436L359.76566422953294 379.28602044376436Q361.5005902266506 377.7501843151684 363.121750584613 377.7501843151684Z " fill="#123b31" transform="matrix(0.857165697356054,0,0,0.857165697356054,0,13.090913901749445)"/><path d="M562.4960427256962 263.747433527574L651.443999183642 263.747433527574L651.443999183642 279.66797055952463L582.1379003644121 279.66797055952463L582.1379003644121 327.62544063468005L638.2654878619393 327.62544063468005L638.2654878619393 342.93042087453426L582.1379003644121 342.93042087453426L582.1379003644121 392.17496424225516L651.443999183642 392.17496424225516L651.443999183642 408.0955012742058L562.4960427256962 408.0955012742058L562.4960427256962 263.747433527574ZM678.752336869378 259.71833452476045L696.6874234027355 259.71833452476045L696.6874234027355 408.0955012742058L678.752336869378 408.0955012742058L678.752336869378 259.71833452476045ZM768.7075680780272 304.45812136850236L768.7075680780272 304.45812136850236Q777.8569803969162 304.45812136850236 785.607400006495 307.50792547479864Q793.38579947026 310.5857094352813 799.0097501616873 316.3775392518257Q804.6616807073007 322.16936906837014 807.8234042303418 330.67524474097644Q811.0131076075693 339.209100267769 811.0131076075693 350.0652836920165L811.0131076075693 350.0652836920165Q811.0131076075693 354.3182215283197 810.0897724194244 355.71721423763Q809.194417085466 357.11620694694017 806.6762302087075 357.11620694694017L806.6762302087075 357.11620694694017L738.7691240987879 357.11620694694017Q738.9929629322775 366.79723649536714 741.3992303922911 373.96007916703564Q743.8054978523047 381.0949419845179 748.0584356886079 385.879497050359Q752.2833936707249 390.6640521162 758.1311831956417 393.0423397220275Q763.9509928663724 395.3926474736688 771.2257549547857 395.3926474736688L771.2257549547857 395.3926474736688Q777.9688998136611 395.3926474736688 782.8373944420608 393.8537554934274Q787.7338689246467 392.286883659 791.2593305521085 390.4681931368967Q794.7847921795703 388.64950261479333 797.1630797853977 387.08263078036583Q799.513387537039 385.5437388001246 801.2201586423975 385.5437388001246L801.2201586423975 385.5437388001246Q803.4585469772938 385.5437388001246 804.6616807073007 387.25050990548306L804.6616807073007 387.25050990548306L809.6980544608176 393.79779578505503Q806.3684518126593 397.8268947878685 801.7237960177491 400.7927593316063Q797.1071200770253 403.75862387534397 791.8189276358326 405.68923381419216Q786.5307351946399 407.5918638988541 780.8788046490264 408.5431789411851Q775.2548539575992 409.49449398351607 769.7148428287306 409.49449398351607L769.7148428287306 409.49449398351607Q759.1384579463452 409.49449398351607 750.2128844609457 405.941052501868Q741.2873109755462 402.3596311660338 734.7959848043467 395.44860718204114Q728.3046586331471 388.5655630522347 724.6672775889405 378.3808961284561Q721.05787639892 368.1962292046774 721.05787639892 355.01771788297486L721.05787639892 355.01771788297486Q721.05787639892 344.32941358384454 724.331519338706 335.0680818482106Q727.605162278492 325.8067501125768 733.7327503452709 319.0076455453289Q739.8883182662361 312.2085409780811 748.757932043263 308.31934124619863Q757.62754582029 304.45812136850236 768.7075680780272 304.45812136850236ZM769.0992860366341 317.63663269020486L769.0992860366341 317.63663269020486Q756.1166336942349 317.63663269020486 748.6460126265182 325.1352336121078Q741.2033714129876 332.661814388197 739.3846808908843 345.9522451266444L739.3846808908843 345.9522451266444L794.8967115963151 345.9522451266444Q794.8967115963151 339.71273764312065 793.1619606367705 334.5084847644866Q791.4551895314119 329.33221174003864 788.1255868832535 325.554931424901Q784.8239640892814 321.7776511097632 780.0394090234403 319.70714189998404Q775.2548539575992 317.63663269020486 769.0992860366341 317.63663269020486ZM851.8077350110561 408.0955012742058L833.8726484776987 408.0955012742058L833.8726484776987 306.052973057116L844.5329729226429 306.052973057116Q848.3662129461529 306.052973057116 849.3734876968564 309.7742936638813L849.3734876968564 309.7742936638813L850.8004602603528 320.8543159216185Q857.4316857024835 313.52359412483275 865.6577628332277 308.99085774666753Q873.8558601097857 304.45812136850236 884.6281039714747 304.45812136850236L884.6281039714747 304.45812136850236Q892.9940803731499 304.45812136850236 899.4014669817909 307.2281269329367Q905.7808737362457 309.9981324973709 910.061791426735 315.062486105074Q914.3427091172243 320.15481956696334 916.5531175979347 327.31766223863184Q918.7915059328311 334.4525250561141 918.7915059328311 343.12627985383773L918.7915059328311 343.12627985383773L918.7915059328311 408.0955012742058L900.8564193994737 408.0955012742058L900.8564193994737 343.12627985383773Q900.8564193994737 331.5426202207488 895.5682269582809 325.1352336121078Q890.2800345170881 318.75582685765306 879.3958712386543 318.75582685765306L879.3958712386543 318.75582685765306Q871.4495926497722 318.75582685765306 864.5385686657795 322.5890668811632Q857.6275446817868 326.3943270504871 851.8077350110561 332.9416129300591L851.8077350110561 332.9416129300591L851.8077350110561 408.0955012742058ZM1020.8060542957346 342.8185014577894L1020.8060542957346 408.0955012742058L1012.8597757068524 408.0955012742058Q1010.2296694133491 408.0955012742058 1008.6348177247354 407.2840855028059Q1007.0119861819355 406.4726697314059 1006.5083488065839 403.8705432920888L1006.5083488065839 403.8705432920888L1004.493799305177 394.3853727229653Q1000.4647003023636 398.022753767172 996.6314602788534 400.90467874835116Q992.8262001095295 403.75862387534397 988.5732622732264 405.7172136683784Q984.3483042911095 407.70378331559897 979.5637492252683 408.7110580663023Q974.7791941594273 409.71833281700566 968.9314046345105 409.71833281700566L968.9314046345105 409.71833281700566Q962.9996755470349 409.71833281700566 957.8234025225871 408.0395415658334Q952.6191496439529 406.3887301688473 948.7859096204429 403.05912752068895Q944.980649451119 399.7295248725305 942.7142812620364 394.63719141064115Q940.4479130729537 389.57283780293807 940.4479130729537 382.60585411057303L940.4479130729537 382.60585411057303Q940.4479130729537 376.56220560635273 943.749535866926 370.96623476911174Q947.0791385150844 365.39824378605687 954.4937998744288 361.06136638719516Q961.8804813795869 356.72448898833335 973.8838388254687 353.95448342389903Q985.8592164171646 351.1844778594647 1003.1787461584254 350.7927599008579L1003.1787461584254 350.7927599008579L1003.1787461584254 342.8185014577894Q1003.1787461584254 330.9270634286523 998.1143925507223 324.85543507024585Q993.022059088833 318.75582685765306 983.0332511443578 318.75582685765306L983.0332511443578 318.75582685765306Q976.4859652647858 318.75582685765306 972.009188594993 320.4066382546392Q967.5324119252002 322.08542950581153 964.2587689854142 324.12795886140447Q960.9851260456282 326.19846807118364 958.6068384398009 327.877259322356Q956.2565306881596 329.5280707193421 953.9342027907046 329.5280707193421L953.9342027907046 329.5280707193421Q952.1155122686012 329.5280707193421 950.7724792676634 328.576755677011Q949.4014664125393 327.62544063468005 948.5900506411394 326.19846807118364L948.5900506411394 326.19846807118364L945.3723674097258 320.46259796301166Q953.8222833739597 312.2924805406397 963.6152323391316 308.26338153782615Q973.380201450117 304.23428253501265 985.2716394792543 304.23428253501265L985.2716394792543 304.23428253501265Q993.8334748602329 304.23428253501265 1000.4647003023636 307.06024780781934Q1007.1239055986803 309.88621308062613 1011.6566419768455 314.92258683414303Q1016.1893783550108 319.9589605876599 1018.5117062524658 327.1218032593284Q1020.8060542957346 334.25666607681075 1020.8060542957346 342.8185014577894L1020.8060542957346 342.8185014577894ZM974.2755567840757 397.1273984332134L974.2755567840757 397.1273984332134Q979.0041521415444 397.1273984332134 982.9493115817992 396.1481035366963Q986.8664911678679 395.1967884943653 990.3359930869573 393.43405768063434Q993.8334748602329 391.6713268669035 996.9951983832742 389.153139990145Q1000.1569219063153 386.63495311338653 1003.1787461584254 383.4172698819729L1003.1787461584254 383.4172698819729L1003.1787461584254 362.1525807004571Q990.8116506081228 362.5722785132502 982.1378958103993 364.1391503476777Q973.4641410126756 365.67804232791894 968.0360493005519 368.1962292046774Q962.6079575884281 370.7144160814359 960.1177505658559 374.1559381463391Q957.6555233974699 377.5694803570561 957.6555233974699 381.79443833917304L957.6555233974699 381.79443833917304Q957.6555233974699 385.82353734198654 958.9705765442216 388.7614220315382Q960.2856296909731 391.6713268669035 962.4960381716833 393.5459770973792Q964.7064466523934 395.3926474736688 967.7282709045037 396.260022953441Q970.7500951566137 397.1273984332134 974.2755567840757 397.1273984332134Z " fill="#123b31" transform="matrix(0.857165697356054,0,0,0.857165697356054,0,13.090913901749445)"/></g></svg>