<svg width="219" height="29" viewBox="0 0 219 29" fill="#123b31" xmlns="http://www.w3.org/2000/svg">
<path d="M0.096 16.968C0.032 16.968 0 16.928 0 16.848L0.024 0.36C0.024 0.296 0.056 0.263999 0.12 0.263999H7.824C7.888 0.263999 7.92 0.303999 7.92 0.383999V3.072C7.92 3.136 7.888 3.168 7.824 3.168H2.904V6.912H7.824C7.888 6.912 7.92 6.944 7.92 7.008L7.944 9.72C7.944 9.784 7.912 9.816 7.848 9.816H2.904V14.016H7.848C7.912 14.016 7.944 14.056 7.944 14.136V16.872C7.944 16.936 7.912 16.968 7.848 16.968H0.096Z" fill="#123b31"/>
<path d="M10.1741 16.968C10.1101 16.968 10.0781 16.928 10.0781 16.848L10.1021 0.383999C10.1021 0.303999 10.1421 0.263999 10.2221 0.263999H12.8861C12.9661 0.263999 13.0061 0.303999 13.0061 0.383999L12.9821 14.016H17.9261C18.0061 14.016 18.0461 14.056 18.0461 14.136V16.848C18.0461 16.928 18.0061 16.968 17.9261 16.968H10.1741Z" fill="#123b31"/>
<path d="M19.7132 16.968C19.6492 16.968 19.6172 16.928 19.6172 16.848L19.6412 0.36C19.6412 0.296 19.6732 0.263999 19.7372 0.263999H27.4412C27.5052 0.263999 27.5372 0.303999 27.5372 0.383999V3.072C27.5372 3.136 27.5052 3.168 27.4412 3.168H22.5212V6.912H27.4412C27.5052 6.912 27.5372 6.944 27.5372 7.008L27.5612 9.72C27.5612 9.784 27.5292 9.816 27.4652 9.816H22.5212V14.016H27.4652C27.5292 14.016 27.5612 14.056 27.5612 14.136V16.872C27.5612 16.936 27.5292 16.968 27.4652 16.968H19.7132Z" fill="#123b31"/>
<path d="M29.9113 16.968C29.7833 16.968 29.7193 16.912 29.7193 16.8L29.6953 0.456C29.6953 0.328 29.7593 0.263999 29.8873 0.263999H32.0473L36.1033 9.72L35.9833 0.456C35.9833 0.328 36.0553 0.263999 36.1993 0.263999H38.5753C38.6713 0.263999 38.7193 0.328 38.7193 0.456L38.7433 16.824C38.7433 16.92 38.7033 16.968 38.6233 16.968H36.5113L32.3593 8.136L32.5273 16.776C32.5273 16.904 32.4553 16.968 32.3113 16.968H29.9113Z" fill="#123b31"/>
<path d="M40.0121 16.848L42.9881 0.36C43.0041 0.296 43.0441 0.263999 43.1081 0.263999H46.5881C46.6521 0.263999 46.6921 0.296 46.7081 0.36L49.5641 16.848C49.5801 16.928 49.5481 16.968 49.4681 16.968H46.8041C46.7401 16.968 46.7001 16.928 46.6841 16.848L46.4201 15.096H43.1561L42.8921 16.848C42.8761 16.928 42.8361 16.968 42.7721 16.968H40.1081C40.0441 16.968 40.0121 16.928 40.0121 16.848ZM43.6361 12.528H45.9401L44.9561 5.784L44.8121 4.896L44.7161 5.784L43.6361 12.528Z" fill="#123b31"/>
<path d="M63.1389 28.5249C62.2994 28.7889 61.4715 28.8228 60.655 28.6266C59.8491 28.4104 59.1373 28.0136 58.5197 27.4363C57.9021 26.8589 57.4565 26.1352 57.183 25.2652L54.96 18.1148C54.6961 17.2753 54.6469 16.4521 54.8126 15.6453C54.9887 14.8184 55.3477 14.0933 55.8897 13.4701C56.4422 12.8268 57.1382 12.3731 57.9777 12.1092C58.8172 11.8452 59.6375 11.8138 60.4386 12.0147C61.2398 12.2157 61.9492 12.6048 62.5668 13.1822C63.1796 13.7443 63.6203 14.4527 63.8891 15.3074L64.2202 16.3606C64.2394 16.4216 64.2185 16.4618 64.1574 16.481L61.5932 17.2872C61.5321 17.3064 61.492 17.2854 61.4728 17.2244L61.1417 16.1712C60.9833 15.6675 60.6786 15.2853 60.2277 15.0246C59.792 14.759 59.3299 14.703 58.8415 14.8566C58.292 15.0294 57.9322 15.3521 57.7622 15.8249C57.5874 16.2824 57.5768 16.7553 57.7303 17.2438L59.9762 24.387C60.1538 24.9518 60.458 25.3593 60.8889 25.6096C61.3351 25.855 61.7947 25.9034 62.2679 25.7546C62.7563 25.6011 63.1008 25.2831 63.3014 24.8008C63.5124 24.2983 63.5411 23.8029 63.3876 23.3145L63.0564 22.2613C63.0372 22.2002 63.0582 22.1601 63.1192 22.1409L65.7064 21.3275C65.7674 21.3083 65.8075 21.3292 65.8267 21.3903L66.1579 22.4435C66.4314 23.3135 66.4725 24.1643 66.2811 24.996C66.105 25.8229 65.7484 26.5556 65.2112 27.1941C64.6691 27.8174 63.9784 28.261 63.1389 28.5249Z" fill="#123b31"/>
<path d="M64.096 16.968C64.032 16.968 64 16.928 64 16.848L64.024 0.36C64.024 0.296 64.064 0.263999 64.144 0.263999H66.808C66.888 0.263999 66.928 0.296 66.928 0.36L66.904 6.888H70.504V0.36C70.504 0.296 70.536 0.263999 70.6 0.263999H73.264C73.344 0.263999 73.384 0.296 73.384 0.36L73.432 16.848C73.432 16.928 73.392 16.968 73.312 16.968H70.624C70.544 16.968 70.504 16.928 70.504 16.848V9.792H66.904V16.848C66.904 16.928 66.872 16.968 66.808 16.968H64.096Z" fill="#123b31"/>
<path d="M75.5106 16.968C75.4306 16.968 75.3906 16.928 75.3906 16.848L75.4146 0.36C75.4146 0.296 75.4466 0.263999 75.5106 0.263999H78.1986C78.2626 0.263999 78.2946 0.296 78.2946 0.36L78.3186 16.848C78.3186 16.928 78.2866 16.968 78.2226 16.968H75.5106Z" fill="#123b31"/>
<path d="M80.6457 16.968C80.5177 16.968 80.4537 16.912 80.4537 16.8L80.4297 0.456C80.4297 0.328 80.4937 0.263999 80.6217 0.263999H82.7817L86.8377 9.72L86.7177 0.456C86.7177 0.328 86.7897 0.263999 86.9337 0.263999H89.3097C89.4057 0.263999 89.4537 0.328 89.4537 0.456L89.4777 16.824C89.4777 16.92 89.4377 16.968 89.3577 16.968H87.2457L83.0937 8.136L83.2617 16.776C83.2617 16.904 83.1897 16.968 83.0457 16.968H80.6457Z" fill="#123b31"/>
<path d="M90.7465 16.848L93.7225 0.36C93.7385 0.296 93.7785 0.263999 93.8425 0.263999H97.3225C97.3865 0.263999 97.4265 0.296 97.4425 0.36L100.299 16.848C100.315 16.928 100.282 16.968 100.202 16.968H97.5385C97.4745 16.968 97.4345 16.928 97.4185 16.848L97.1545 15.096H93.8905L93.6265 16.848C93.6105 16.928 93.5705 16.968 93.5065 16.968H90.8425C90.7785 16.968 90.7465 16.928 90.7465 16.848ZM94.3705 12.528H96.6745L95.6905 5.784L95.5465 4.896L95.4505 5.784L94.3705 12.528Z" fill="#123b31"/>
<path d="M100.801 10.032C100.721 10.032 100.681 10 100.681 9.936V7.32C100.681 7.256 100.721 7.224 100.801 7.224H105.433C105.513 7.224 105.553 7.256 105.553 7.32V9.936C105.553 10 105.513 10.032 105.433 10.032H100.801Z" fill="#123b31"/>
<path d="M107.971 16.968C107.907 16.968 107.875 16.928 107.875 16.848L107.923 0.383999C107.923 0.303999 107.955 0.263999 108.019 0.263999H110.707C110.771 0.263999 110.803 0.303999 110.803 0.383999V6.072L114.571 0.36C114.619 0.296 114.675 0.263999 114.739 0.263999H117.499C117.563 0.263999 117.579 0.296 117.547 0.36L113.395 6.984L118.051 16.872C118.083 16.936 118.043 16.968 117.931 16.968H115.003C114.923 16.968 114.875 16.936 114.859 16.872L111.619 9.816L110.779 11.136V16.848C110.779 16.928 110.747 16.968 110.683 16.968H107.971Z" fill="#123b31"/>
<path d="M122.604 17.208C121.74 17.208 120.948 16.992 120.228 16.56C119.524 16.112 118.956 15.528 118.524 14.808C118.092 14.072 117.876 13.264 117.876 12.384L117.9 4.776C117.9 3.896 118.108 3.096 118.524 2.376C118.956 1.656 119.532 1.08 120.252 0.648C120.972 0.216 121.756 0 122.604 0C123.468 0 124.252 0.216 124.956 0.648C125.66 1.08 126.22 1.656 126.636 2.376C127.068 3.096 127.284 3.896 127.284 4.776L127.308 12.384C127.308 13.264 127.092 14.072 126.66 14.808C126.244 15.528 125.676 16.112 124.956 16.56C124.252 16.992 123.468 17.208 122.604 17.208ZM122.604 14.304C123.084 14.304 123.5 14.112 123.852 13.728C124.22 13.328 124.404 12.88 124.404 12.384L124.38 4.776C124.38 4.248 124.212 3.8 123.876 3.432C123.54 3.064 123.116 2.88 122.604 2.88C122.108 2.88 121.684 3.064 121.332 3.432C120.98 3.784 120.804 4.232 120.804 4.776V12.384C120.804 12.912 120.98 13.368 121.332 13.752C121.684 14.12 122.108 14.304 122.604 14.304Z" fill="#123b31"/>
<path d="M129.229 16.968C129.165 16.968 129.133 16.928 129.133 16.848L129.157 0.383999C129.157 0.303999 129.197 0.263999 129.277 0.263999H131.941C132.021 0.263999 132.061 0.303999 132.061 0.383999L132.037 14.016H136.981C137.061 14.016 137.101 14.056 137.101 14.136V16.848C137.101 16.928 137.061 16.968 136.981 16.968H129.229Z" fill="#123b31"/>
<path d="M138.768 16.968C138.704 16.968 138.672 16.928 138.672 16.848L138.696 0.36C138.696 0.296 138.728 0.263999 138.792 0.263999H146.496C146.56 0.263999 146.592 0.303999 146.592 0.383999V3.072C146.592 3.136 146.56 3.168 146.496 3.168H141.576V6.912H146.496C146.56 6.912 146.592 6.944 146.592 7.008L146.616 9.72C146.616 9.784 146.584 9.816 146.52 9.816H141.576V14.016H146.52C146.584 14.016 146.616 14.056 146.616 14.136V16.872C146.616 16.936 146.584 16.968 146.52 16.968H138.768Z" fill="#123b31"/>
<path d="M148.846 16.968C148.782 16.968 148.75 16.928 148.75 16.848L148.774 0.36C148.774 0.296 148.814 0.263999 148.894 0.263999H151.558C151.638 0.263999 151.678 0.296 151.678 0.36L151.654 6.888H155.254V0.36C155.254 0.296 155.286 0.263999 155.35 0.263999H158.014C158.094 0.263999 158.134 0.296 158.134 0.36L158.182 16.848C158.182 16.928 158.142 16.968 158.062 16.968H155.374C155.294 16.968 155.254 16.928 155.254 16.848V9.792H151.654V16.848C151.654 16.928 151.622 16.968 151.558 16.968H148.846Z" fill="#123b31"/>
<path d="M160.237 16.968C160.173 16.968 160.141 16.928 160.141 16.848L160.189 0.36C160.189 0.296 160.221 0.263999 160.285 0.263999H163.213C163.277 0.263999 163.333 0.296 163.381 0.36L165.565 3.528L167.749 0.36C167.797 0.296 167.853 0.263999 167.917 0.263999H170.869C170.933 0.263999 170.965 0.296 170.965 0.36L171.013 16.848C171.013 16.928 170.981 16.968 170.917 16.968H168.205C168.141 16.968 168.109 16.928 168.109 16.848L168.085 4.608L165.565 8.256L163.069 4.608L163.045 16.848C163.045 16.928 163.013 16.968 162.949 16.968H160.237Z" fill="#123b31"/>
<path d="M172.215 16.848L175.191 0.36C175.207 0.296 175.247 0.263999 175.311 0.263999H178.791C178.855 0.263999 178.895 0.296 178.911 0.36L181.767 16.848C181.783 16.928 181.751 16.968 181.671 16.968H179.007C178.943 16.968 178.903 16.928 178.887 16.848L178.623 15.096H175.359L175.095 16.848C175.079 16.928 175.039 16.968 174.975 16.968H172.311C172.247 16.968 172.215 16.928 172.215 16.848ZM175.839 12.528H178.143L177.159 5.784L177.015 4.896L176.919 5.784L175.839 12.528Z" fill="#123b31"/>
<path d="M183.393 16.968C183.313 16.968 183.273 16.928 183.273 16.848L183.297 0.36C183.297 0.296 183.329 0.263999 183.393 0.263999H186.081C186.145 0.263999 186.177 0.296 186.177 0.36L186.201 16.848C186.201 16.928 186.169 16.968 186.105 16.968H183.393Z" fill="#123b31"/>
<path d="M188.529 16.968C188.401 16.968 188.337 16.912 188.337 16.8L188.312 0.456C188.312 0.328 188.377 0.263999 188.505 0.263999H190.665L194.721 9.72L194.6 0.456C194.6 0.328 194.672 0.263999 194.816 0.263999H197.193C197.289 0.263999 197.337 0.328 197.337 0.456L197.361 16.824C197.361 16.92 197.32 16.968 197.24 16.968H195.128L190.977 8.136L191.145 16.776C191.145 16.904 191.072 16.968 190.928 16.968H188.529Z" fill="#123b31"/>
<path d="M199.541 16.968C199.477 16.968 199.445 16.928 199.445 16.848L199.469 0.36C199.469 0.296 199.501 0.263999 199.565 0.263999H207.269C207.333 0.263999 207.365 0.303999 207.365 0.383999V3.072C207.365 3.136 207.333 3.168 207.269 3.168H202.349V6.912H207.269C207.333 6.912 207.365 6.944 207.365 7.008L207.389 9.72C207.389 9.784 207.357 9.816 207.293 9.816H202.349V14.016H207.293C207.357 14.016 207.389 14.056 207.389 14.136V16.872C207.389 16.936 207.357 16.968 207.293 16.968H199.541Z" fill="#123b31"/>
<path d="M209.739 16.968C209.611 16.968 209.547 16.912 209.547 16.8L209.523 0.456C209.523 0.328 209.587 0.263999 209.715 0.263999H211.875L215.931 9.72L215.811 0.456C215.811 0.328 215.883 0.263999 216.027 0.263999H218.403C218.499 0.263999 218.547 0.328 218.547 0.456L218.571 16.824C218.571 16.92 218.531 16.968 218.451 16.968H216.339L212.187 8.136L212.355 16.776C212.355 16.904 212.283 16.968 212.139 16.968H209.739Z" fill="#123b31"/>
</svg>
